<?xml version="1.0" encoding="utf-8"?>
<!-- Generator: Adobe Illustrator 20.0.0, SVG Export Plug-In . SVG Version: 6.00 Build 0)  -->
<!DOCTYPE svg PUBLIC "-//W3C//DTD SVG 1.1//EN" "http://www.w3.org/Graphics/SVG/1.1/DTD/svg11.dtd">
<svg version="1.1" id="Ebene_1" xmlns="http://www.w3.org/2000/svg" xmlns:xlink="http://www.w3.org/1999/xlink" x="0px" y="0px"
	 viewBox="0 0 390 120" style="enable-background:new 0 0 390 120;" xml:space="preserve">
<g>
	<g>
		<path d="M346.1,44.7c4-5,9-7.5,15.2-7.5c6.6,0,11.5,1.9,14.8,5.8s5,9.6,5.1,17.2v37.5h-18.6V60.6c0-3.1-0.6-5.5-1.9-6.9
			c-1.3-1.5-3.5-2.2-6.5-2.2c-3.8,0-6.5,1.2-8.1,3.6v42.6h-18.5V19.8h18.5V44.7z"/>
	</g>
	<path d="M134.7,23.8c-24.4,0-44.2,19.8-44.2,44.2s19.8,44.2,44.2,44.2s44.2-19.8,44.2-44.2S159.1,23.8,134.7,23.8z M134.7,101
		c-18.2,0-33-14.8-33-33s14.8-33,33-33s33,14.8,33,33S152.9,101,134.7,101z"/>
	<path d="M228.9,44.7c4-5,9-7.5,15.2-7.5c6.6,0,11.5,1.9,14.8,5.8c3.3,3.9,5,9.6,5.1,17.2v37.5h-18.6V60.6c0-3.1-0.6-5.5-1.9-6.9
		c-1.3-1.5-3.5-2.2-6.5-2.2c-3.8,0-6.5,1.2-8.1,3.6v42.6h-18.5V38.3h18.5V44.7z"/>
	<path d="M313.8,42.7c-4.4-3.7-10.4-5.5-18-5.5c-18.5,0-23.4,11.4-24.4,15c0,0.1,0,0.2,0.1,0.3l15.4,3.7l0,0c1.4-4.2,3.6-6.2,8-6.2
		c4.7,0,7.1,2.7,7.1,8.2v3.1h-5.7c-9.1,0-16,1.6-20.8,4.9c-4.8,3.3-7.1,8.2-7.1,14.6c0,5.1,2,9.4,5.9,12.8s8.7,5.1,14.3,5.1
		c6.1,0,10.9-2.1,14.3-6.4v5.3h1.8h2.7h13.3V84.2V81V58C320.4,51.5,318.2,46.4,313.8,42.7z M302,80.8c-0.7,1.2-1.7,2.4-3.3,3.3
		c-1.5,1-3.4,1.5-5.7,1.5c-1.8,0-3.2-0.5-4.3-1.6c-1.1-1-1.7-2.4-1.7-4.1c0-5.8,3.2-8.7,9.7-8.7h5.4v9.6H302z"/>
	<rect x="101.7" y="7" width="66" height="11.2"/>
	<path d="M47.1,63.9c-2.7-0.9-5.8-1.7-9.3-2.4S31.7,60,30.1,59s-2.4-2.4-2.4-4s0.7-3,2-4c1.3-1.1,2.9-1.6,4.9-1.6
		c5,0,7.5,2.3,9.2,6.8l16.3-4c-0.9-3.8-3.1-7-6.6-9.6c-4.8-3.5-11.1-5.3-18.9-5.3c-7.3,0-13.2,1.8-17.7,5.3s-6.8,8-6.8,13.5
		c0,3.1,0.8,5.8,2.4,8.2c1.6,2.4,3.9,4.4,6.9,6.1s6.8,3,11.4,4s7.7,2,9.4,3c1.6,1,2.5,2.2,2.5,3.8c0,1.6-0.6,3-1.9,4
		c-1.3,1-3.2,1.5-5.7,1.5c-2.7,0-5-0.6-6.8-1.9s-3.7-3.3-4.5-5.6l0,0l-15,3.6c0.5,2,1.4,4,2.8,5.9c2.2,3.1,5.3,5.6,9.3,7.5
		c4,1.8,8.5,2.7,13.6,2.7c7.6,0,13.9-1.7,18.7-5.1s7.2-7.8,7.2-13.2C60.5,72.5,56,67,47.1,63.9z"/>
</g>
</svg>
